Patient4_TMGait_0pt7_01_right_45_GRF.mot
version=1
nRows=65
nColumns=19
inDegrees=no
endheader
time	F1x	F1y	F1z	M1x	M1y	M1z	F2x	F2y	F2z	M2x	M2y	M2z	EC1x	EC1y	EC1z	EC2x	EC2y	EC2z
51.59	20.2968	741.1906	58.7215	-260.4178	-52.2314	789.5275	-15.0446	23.3296	22.4148	-0.55949	-9.5404	30.7615	-0.0592	0.0182	-0.0073	-0.0462	0.0165	0.9585
51.602	20.0464	747.8098	56.4388	-262.8005	-50.1309	793.1417	-10.3502	16.5353	15.221	-0.13692	-6.3802	21.7397	-0.0592	0.0182	-0.0073	-0.0462	0.0165	0.9585
51.614	20.1798	754.0504	54.7367	-265.111	-48.2554	795.7398	-6.4145	10.8237	9.1053	0.24288	-3.6745	14.1944	-0.0592	0.0182	-0.0073	-0.0462	0.0165	0.9585
51.626	20.6971	758.9519	53.7137	-266.9649	-46.7124	796.5252	-3.429	6.5227	4.4262	0.55399	-1.5912	8.5352	-0.0592	0.0182	-0.0073	-0.0462	0.0165	0.9585
51.638	21.5274	761.7036	53.3595	-268.0211	-45.5498	794.8742	-1.403	3.6261	1.1827	0.79413	-0.13005	4.7509	-0.0592	0.0182	-0.0073	-0.0462	0.0165	0.9585
51.65	22.5581	761.8533	53.558	-268.0654	-44.7402	790.5297	-0.16848	1.8956	-0.83221	0.9619	0.79219	2.5051	-0.0592	0.0182	-0.0073	-0.0462	0.0165	0.9585
51.662	23.6677	759.3717	54.1691	-267.0444	-44.2365	783.6339	0.43488	1.0449	-1.9007	1.066	1.3043	1.4208	-0.0592	0.0182	-0.0073	-0.0462	0.0165	0.9585
51.674	24.7775	754.6706	55.0148	-265.0711	-43.945	774.726	0.6112	0.7532	-2.3108	1.1074	1.5281	1.0591	-0.0592	0.0182	-0.0073	-0.0462	0.0165	0.9585
51.686	25.852	748.4494	55.9872	-262.3717	-43.8173	764.5938	0.49801	0.74085	-2.3139	1.0836	1.5795	1.059	-0.0592	0.0182	-0.0073	-0.0462	0.0165	0.9585
51.698	26.9007	741.5238	57.0049	-259.2258	-43.8067	754.0937	0.23073	0.75401	-2.1078	0.98154	1.5499	1.0821	-0.0592	0.0182	-0.0073	-0.0462	0.0165	0.9585
51.71	27.9836	734.654	58.0766	-255.9004	-43.9226	743.9888	-0.10806	0.58029	-1.8383	0.77995	1.5098	0.86025	-0.0592	0.0182	-0.0073	-0.0462	0.0165	0.9585
51.722	29.2167	728.4443	59.204	-252.6204	-44.1435	734.8321	-0.44297	0.047213	-1.5882	0.45304	1.486	0.17568	-0.0592	0.0182	-0.0073	-0.0462	0.0165	0.9585
51.734	30.7007	723.3302	60.4276	-249.5568	-44.4739	726.9865	-0.70783	-0.96202	-1.405	-0.020478	1.4834	-1.116	-0.0592	0.0182	-0.0073	-0.0462	0.0165	0.9585
51.746	32.5607	719.6163	61.7571	-246.841	-44.8727	720.6574	-0.83658	-2.4999	-1.2895	-0.6492	1.4691	-3.0829	-0.0592	0.0182	-0.0073	-0.0462	0.0165	0.9585
51.758	34.8644	717.5216	63.2253	-244.5732	-45.3282	715.985	-0.73786	-4.5024	-1.2092	-1.408	1.3723	-5.6508	-0.0592	0.0182	-0.0073	-0.0462	0.0165	0.9585
51.77	37.6434	717.1687	64.85	-242.8215	-45.8253	713.0153	-0.31932	-6.7346	-1.1005	-2.2158	1.0932	-8.525	-0.0592	0.0182	-0.0073	-0.0462	0.0165	0.9585
51.782	40.827	718.5864	66.6669	-241.6185	-46.3933	711.7508	0.54292	-8.7451	-0.87776	-2.9132	0.49962	-11.1425	-0.0592	0.0182	-0.0073	-0.0462	0.0165	0.9585
51.794	44.3	721.6544	68.6817	-240.9483	-47.054	712.0466	1.9535	-9.759	-0.44098	-3.2246	-0.56366	-12.5299	-0.0592	0.0182	-0.0073	-0.0462	0.0165	0.9585
51.806	47.8812	726.1543	70.8542	-240.764	-47.8064	713.6753	4.0053	-8.6365	0.30941	-2.7405	-2.2483	-11.2589	-0.0592	0.0182	-0.0073	-0.0462	0.0165	0.9585
51.818	51.4454	731.8212	73.1186	-241.006	-48.6182	716.347	6.6745	-3.814	1.4461	-0.89958	-4.6344	-5.3481	-0.0592	0.0182	-0.0073	-0.0462	0.0165	0.9585
51.83	54.8972	738.2679	75.3577	-241.5834	-49.4053	719.6667	9.8069	6.6089	2.9949	2.9827	-7.6906	7.6074	-0.0592	0.0182	-0.0073	-0.0462	0.0165	0.9585
51.842	58.2316	744.8529	77.4521	-242.3277	-50.063	722.9889	12.9506	24.7188	4.8913	9.6484	-11.1689	30.2814	-0.0592	0.0182	-0.0073	-0.0462	0.0165	0.9585
51.854	61.4874	750.517	79.2096	-242.9338	-50.4102	725.3035	15.3027	52.3486	6.9335	19.7372	-14.5114	65.0297	-0.0592	0.0182	-0.0073	-0.0462	0.0165	0.9585
51.866	64.7327	753.7196	80.4062	-242.9325	-50.2343	725.1554	15.5436	90.4464	8.7069	33.5457	-16.7062	113.1284	-0.0592	0.0182	-0.0073	-0.0462	0.0165	0.9585
51.878	67.9533	752.5131	80.734	-241.7173	-49.2753	720.739	11.9319	138.2418	9.4955	50.7365	-16.2406	173.7067	-0.0592	0.0182	-0.0073	-0.0462	0.0165	0.9585
51.89	71.0457	744.7307	79.8713	-238.606	-47.2991	710.093	3.3984	193.2831	8.4558	70.3518	-11.722	243.8097	-0.0592	0.0182	-0.0073	-0.0462	0.0165	0.9585
51.902	73.7612	728.3693	77.4876	-232.9625	-44.1115	691.4569	-9.1674	251.8358	5.1089	90.9964	-2.8681	318.7413	-0.0592	0.0182	-0.0073	-0.0462	0.0165	0.9585
51.914	75.7522	701.8963	73.3549	-224.292	-39.6399	663.5309	-23.8121	308.595	-0.46159	110.7751	9.5066	391.6413	-0.0592	0.0182	-0.0073	-0.0462	0.0165	0.9585
51.926	76.6196	664.524	67.4134	-212.3265	-33.9789	625.717	-38.1272	357.8251	-7.545	127.7248	23.5798	454.8895	-0.0592	0.0182	-0.0073	-0.0462	0.0165	0.9585
51.938	75.9811	616.516	59.8296	-197.1145	-27.4161	578.3918	-50.2522	396.911	-14.8734	140.9947	37.0749	504.8957	-0.0592	0.0182	-0.0073	-0.0462	0.0165	0.9585
51.95	73.5832	559.2328	51.0572	-179.0324	-20.4418	522.9277	-59.6244	427.2287	-21.6101	151.1116	48.7396	543.2884	-0.0592	0.0182	-0.0073	-0.0462	0.0165	0.9585
51.962	69.3631	494.9953	41.7343	-158.7485	-13.6266	461.5501	-66.3542	452.4189	-27.3865	159.3757	58.1828	574.6772	-0.0592	0.0182	-0.0073	-0.0462	0.0165	0.9585
51.974	63.4405	426.662	32.5451	-137.1107	-7.5146	396.9163	-70.8553	476.2242	-32.0509	167.1158	65.4169	603.8215	-0.0592	0.0182	-0.0073	-0.0462	0.0165	0.9585
51.986	56.0374	357.3529	24.0608	-115.0708	-2.5163	331.8943	-73.5127	501.3793	-35.8948	175.2713	70.9691	634.1665	-0.0592	0.0182	-0.0073	-0.0462	0.0165	0.9585
51.998	47.5797	290.154	16.7165	-93.5997	1.1286	269.2498	-74.7142	529.1913	-39.4458	184.2557	75.6552	667.3682	-0.0592	0.0182	-0.0073	-0.0462	0.0165	0.9585
52.01	38.6468	227.8392	10.7551	-73.597	3.3992	211.4488	-74.841	559.7136	-43.3949	194.0264	80.4561	703.5408	-0.0592	0.0182	-0.0073	-0.0462	0.0165	0.9585
52.022	29.9463	172.5186	6.2592	-55.7666	4.4544	160.3016	-74.2548	592.0634	-48.2321	204.2251	86.0946	741.6423	-0.0592	0.0182	-0.0073	-0.0462	0.0165	0.9585
52.034	22.051	125.3753	3.126	-40.5245	4.579	116.8053	-73.3117	624.7302	-54.135	214.3134	92.8876	779.8716	-0.0592	0.0182	-0.0073	-0.0462	0.0165	0.9585
52.046	15.3041	86.7202	1.1132	-28.0083	4.0984	81.1559	-72.3111	656.1974	-60.7915	223.7977	100.5535	816.409	-0.0592	0.0182	-0.0073	-0.0462	0.0165	0.9585
52.058	9.775	56.2443	-0.072046	-18.1451	3.2945	53.0473	-71.3749	685.2578	-67.642	232.3238	108.451	849.7814	-0.0592	0.0182	-0.0073	-0.0462	0.0165	0.9585
52.07	5.4563	33.2675	-0.6674	-10.7272	2.3711	31.8281	-70.4748	710.9815	-74.0754	239.6491	115.8359	878.8385	-0.0592	0.0182	-0.0073	-0.0462	0.0165	0.9585
52.082	2.2754	16.9368	-0.85483	-5.4761	1.4666	16.7269	-69.4383	732.6307	-79.7201	245.5886	122.1879	902.652	-0.0592	0.0182	-0.0073	-0.0462	0.0165	0.9585
52.094	0.16911	6.2509	-0.78884	-2.0613	0.69519	6.8176	-68.0753	749.65	-84.3858	250.0049	127.2047	920.5308	-0.0592	0.0182	-0.0073	-0.0462	0.0165	0.9585
52.106	-1.0681	0.075157	-0.58039	-0.10583	0.089587	1.0648	-66.2472	761.6965	-88.0493	252.8198	130.8003	932.0807	-0.0592	0.0182	-0.0073	-0.0462	0.0165	0.9585
52.118	-1.6563	-2.8228	-0.33299	0.79487	-0.3327	-1.6702	-63.9066	768.8026	-90.775	254.07	133.0317	937.3966	-0.0592	0.0182	-0.0073	-0.0462	0.0165	0.9585
52.13	-1.8232	-3.5593	-0.088719	1.0058	-0.61068	-2.4058	-61.111	771.4033	-92.68	253.9221	134.0553	937.0712	-0.0592	0.0182	-0.0073	-0.0462	0.0165	0.9585
52.142	-1.7321	-3.0351	0.10087	0.81821	-0.75349	-1.9753	-58.0073	770.3046	-93.9078	252.6631	134.091	932.1343	-0.0592	0.0182	-0.0073	-0.0462	0.0165	0.9585
52.154	-1.5219	-1.9134	0.23916	0.44638	-0.80693	-0.97787	-54.7443	766.5142	-94.5974	250.6406	133.362	923.8386	-0.0592	0.0182	-0.0073	-0.0462	0.0165	0.9585
52.166	-1.274	-0.61453	0.31006	0.024228	-0.78463	0.19341	-51.4688	760.9754	-94.8409	248.1805	132.0376	913.3278	-0.0592	0.0182	-0.0073	-0.0462	0.0165	0.9585
52.178	-1.0361	0.61556	0.33682	-0.37072	-0.7245	1.3108	-48.2813	754.449	-94.6655	245.5446	130.2022	901.4996	-0.0592	0.0182	-0.0073	-0.0462	0.0165	0.9585
52.19	-0.82701	1.6627	0.32544	-0.70379	-0.63945	2.2714	-45.2414	747.476	-94.0847	242.9161	127.9097	888.9826	-0.0592	0.0182	-0.0073	-0.0462	0.0165	0.9585
52.202	-0.65649	2.4899	0.30159	-0.96361	-0.55425	3.0476	-42.3817	740.3599	-93.108	240.3935	125.2015	876.1317	-0.0592	0.0182	-0.0073	-0.0462	0.0165	0.9585
52.214	-0.51873	3.1192	0.27316	-1.1577	-0.47673	3.6715	-39.654	733.2442	-91.7943	238.0145	122.1415	863.097	-0.0592	0.0182	-0.0073	-0.0462	0.0165	0.9585
52.226	-0.41349	3.5815	0.24769	-1.2984	-0.41459	4.163	-36.9644	726.1954	-90.2001	235.789	118.7734	849.9203	-0.0592	0.0182	-0.0073	-0.0462	0.0165	0.9585
52.238	-0.34637	3.9179	0.23351	-1.3998	-0.37953	4.5517	-34.1847	719.3214	-88.3868	233.7404	115.1303	836.6787	-0.0592	0.0182	-0.0073	-0.0462	0.0165	0.9585
52.25	-0.31603	4.1398	0.22712	-1.4683	-0.36807	4.8253	-31.2096	712.9206	-86.38	231.9555	111.2157	823.6606	-0.0592	0.0182	-0.0073	-0.0462	0.0165	0.9585
52.262	-0.3288	4.2515	0.23709	-1.5042	-0.39479	4.9732	-27.9717	707.5525	-84.1919	230.6084	107.0328	811.4584	-0.0592	0.0182	-0.0073	-0.0462	0.0165	0.9585
52.274	-0.38118	4.2184	0.25775	-1.4942	-0.45475	4.9365	-24.4733	704.0742	-81.8336	229.9695	102.6051	801.0287	-0.0592	0.0182	-0.0073	-0.0462	0.0165	0.9585
52.286	-0.47725	3.976	0.29549	-1.4143	-0.5556	4.6546	-20.7528	703.4767	-79.3902	230.3441	98.044	793.4886	-0.0592	0.0182	-0.0073	-0.0462	0.0165	0.9585
52.298	-0.60916	3.4483	0.34626	-1.2346	-0.68528	4.0274	-16.8889	706.5572	-76.9889	231.9616	93.518	789.7606	-0.0592	0.0182	-0.0073	-0.0462	0.0165	0.9585
52.31	-0.77334	2.5399	0.41329	-0.91449	-0.83853	2.9383	-12.9452	713.563	-74.835	234.8613	89.2618	790.1811	-0.0592	0.0182	-0.0073	-0.0462	0.0165	0.9585
52.322	-0.92797	1.142	0.48283	-0.40851	-0.97991	1.2418	-8.9543	724.0938	-73.1253	238.8668	85.4831	794.382	-0.0592	0.0182	-0.0073	-0.0462	0.0165	0.9585
52.334	-1.0304	-0.80991	0.53618	0.31465	-1.0695	-1.1483	-4.9132	737.1315	-72.0341	243.6036	82.3443	801.3222	-0.0592	0.0182	-0.0073	-0.0462	0.0165	0.9585
52.346	-1.0092	-3.3262	0.54831	1.26	-1.0489	-4.2492	-0.78307	751.2722	-71.6033	248.583	79.8589	809.5534	-0.0592	0.0182	-0.0073	-0.0462	0.0165	0.9585
52.358	-0.76216	-6.2436	0.47953	2.366	-0.84005	-7.8574	3.475	764.9335	-71.7813	253.2718	77.9419	817.4447	-0.0592	0.0182	-0.0073	-0.0462	0.0165	0.9585
